<mxfile host="Electron" modified="2025-09-17T18:11:12.605Z" agent="Mozilla/5.0 (Windows NT 10.0; Win64; x64) AppleWebKit/537.36 (KHTML, like Gecko) draw.io/23.1.5 Chrome/120.0.6099.109 Electron/28.1.0 Safari/537.36" etag="mfS5rsaTjbJJYo740yH5" version="23.1.5" type="device">
  <diagram name="Page-1" id="wUxpLoaL5nshn8n5NbQV">
    <mxGraphModel dx="1050" dy="621" grid="1" gridSize="10" guides="1" tooltips="1" connect="1" arrows="1" fold="1" page="1" pageScale="1" pageWidth="850" pageHeight="1100" math="0" shadow="0">
      <root>
        <mxCell id="0" />
        <mxCell id="1" parent="0" />
        <mxCell id="FrakZTlxjL5uv5MNa6Mh-1" value="" style="ellipse;html=1;shape=startState;fillColor=#000000;strokeColor=#ff0000;" vertex="1" parent="1">
          <mxGeometry x="410" y="50" width="30" height="30" as="geometry" />
        </mxCell>
        <mxCell id="FrakZTlxjL5uv5MNa6Mh-2" value="" style="edgeStyle=orthogonalEdgeStyle;html=1;verticalAlign=bottom;endArrow=open;endSize=8;strokeColor=#ff0000;rounded=0;" edge="1" source="FrakZTlxjL5uv5MNa6Mh-1" parent="1" target="FrakZTlxjL5uv5MNa6Mh-3">
          <mxGeometry relative="1" as="geometry">
            <mxPoint x="425" y="140" as="targetPoint" />
          </mxGeometry>
        </mxCell>
        <mxCell id="FrakZTlxjL5uv5MNa6Mh-13" value="" style="edgeStyle=orthogonalEdgeStyle;rounded=0;orthogonalLoop=1;jettySize=auto;html=1;" edge="1" parent="1" source="FrakZTlxjL5uv5MNa6Mh-3" target="FrakZTlxjL5uv5MNa6Mh-10">
          <mxGeometry relative="1" as="geometry" />
        </mxCell>
        <mxCell id="FrakZTlxjL5uv5MNa6Mh-3" value="Thực hiện duyết sản phẩm" style="rounded=1;whiteSpace=wrap;html=1;arcSize=40;fontColor=#000000;fillColor=#ffffc0;strokeColor=#ff0000;" vertex="1" parent="1">
          <mxGeometry x="365" y="120" width="120" height="40" as="geometry" />
        </mxCell>
        <mxCell id="FrakZTlxjL5uv5MNa6Mh-7" value="" style="edgeStyle=orthogonalEdgeStyle;rounded=0;orthogonalLoop=1;jettySize=auto;html=1;entryX=0;entryY=0.5;entryDx=0;entryDy=0;exitX=0.5;exitY=1;exitDx=0;exitDy=0;" edge="1" parent="1" source="FrakZTlxjL5uv5MNa6Mh-4" target="FrakZTlxjL5uv5MNa6Mh-15">
          <mxGeometry relative="1" as="geometry" />
        </mxCell>
        <mxCell id="FrakZTlxjL5uv5MNa6Mh-4" value="Chọn mua các sản phẩm thông qua nút &quot;Mua hàng&quot;" style="whiteSpace=wrap;html=1;fillColor=#ffffc0;strokeColor=#ff0000;fontColor=#000000;rounded=1;arcSize=40;" vertex="1" parent="1">
          <mxGeometry x="365" y="290" width="120" height="60" as="geometry" />
        </mxCell>
        <mxCell id="FrakZTlxjL5uv5MNa6Mh-9" value="" style="edgeStyle=orthogonalEdgeStyle;rounded=0;orthogonalLoop=1;jettySize=auto;html=1;entryX=0;entryY=0.5;entryDx=0;entryDy=0;exitX=0.5;exitY=1;exitDx=0;exitDy=0;" edge="1" parent="1" source="FrakZTlxjL5uv5MNa6Mh-6" target="FrakZTlxjL5uv5MNa6Mh-33">
          <mxGeometry relative="1" as="geometry" />
        </mxCell>
        <mxCell id="FrakZTlxjL5uv5MNa6Mh-6" value="Xem giỏ hàng" style="whiteSpace=wrap;html=1;fillColor=#ffffc0;strokeColor=#ff0000;fontColor=#000000;rounded=1;arcSize=40;" vertex="1" parent="1">
          <mxGeometry x="365" y="450" width="120" height="60" as="geometry" />
        </mxCell>
        <mxCell id="FrakZTlxjL5uv5MNa6Mh-19" value="" style="edgeStyle=orthogonalEdgeStyle;rounded=0;orthogonalLoop=1;jettySize=auto;html=1;" edge="1" parent="1" source="FrakZTlxjL5uv5MNa6Mh-8" target="FrakZTlxjL5uv5MNa6Mh-18">
          <mxGeometry relative="1" as="geometry" />
        </mxCell>
        <mxCell id="FrakZTlxjL5uv5MNa6Mh-8" value="Chọn thanh toán giỏ hàng" style="whiteSpace=wrap;html=1;fillColor=#ffffc0;strokeColor=#ff0000;fontColor=#000000;rounded=1;arcSize=40;" vertex="1" parent="1">
          <mxGeometry x="365" y="590" width="120" height="60" as="geometry" />
        </mxCell>
        <mxCell id="FrakZTlxjL5uv5MNa6Mh-10" value="" style="rhombus;whiteSpace=wrap;html=1;fontColor=#000000;fillColor=#ffffc0;strokeColor=#ff0000;" vertex="1" parent="1">
          <mxGeometry x="385" y="200" width="80" height="40" as="geometry" />
        </mxCell>
        <mxCell id="FrakZTlxjL5uv5MNa6Mh-11" value="[Xem chi tiết sản phẩm]" style="edgeStyle=orthogonalEdgeStyle;html=1;align=left;verticalAlign=bottom;endArrow=open;endSize=8;strokeColor=#ff0000;rounded=0;" edge="1" source="FrakZTlxjL5uv5MNa6Mh-10" parent="1" target="FrakZTlxjL5uv5MNa6Mh-14">
          <mxGeometry x="-1" relative="1" as="geometry">
            <mxPoint x="610" y="200" as="targetPoint" />
          </mxGeometry>
        </mxCell>
        <mxCell id="FrakZTlxjL5uv5MNa6Mh-12" value="[Else]" style="edgeStyle=orthogonalEdgeStyle;html=1;align=left;verticalAlign=top;endArrow=open;endSize=8;strokeColor=#ff0000;rounded=0;" edge="1" source="FrakZTlxjL5uv5MNa6Mh-10" parent="1" target="FrakZTlxjL5uv5MNa6Mh-4">
          <mxGeometry x="-1" relative="1" as="geometry">
            <mxPoint x="420" y="280" as="targetPoint" />
          </mxGeometry>
        </mxCell>
        <mxCell id="FrakZTlxjL5uv5MNa6Mh-16" style="edgeStyle=orthogonalEdgeStyle;rounded=0;orthogonalLoop=1;jettySize=auto;html=1;exitX=0.5;exitY=1;exitDx=0;exitDy=0;entryX=1;entryY=0.5;entryDx=0;entryDy=0;" edge="1" parent="1" source="FrakZTlxjL5uv5MNa6Mh-14" target="FrakZTlxjL5uv5MNa6Mh-15">
          <mxGeometry relative="1" as="geometry" />
        </mxCell>
        <mxCell id="FrakZTlxjL5uv5MNa6Mh-14" value="Chọn mua sản phẩm thông qua nút &quot;Mua hàng&quot;" style="rounded=1;whiteSpace=wrap;html=1;arcSize=40;fontColor=#000000;fillColor=#ffffc0;strokeColor=#ff0000;" vertex="1" parent="1">
          <mxGeometry x="630" y="190" width="120" height="50" as="geometry" />
        </mxCell>
        <mxCell id="FrakZTlxjL5uv5MNa6Mh-17" style="edgeStyle=orthogonalEdgeStyle;rounded=0;orthogonalLoop=1;jettySize=auto;html=1;exitX=0.5;exitY=1;exitDx=0;exitDy=0;" edge="1" parent="1" source="FrakZTlxjL5uv5MNa6Mh-15" target="FrakZTlxjL5uv5MNa6Mh-6">
          <mxGeometry relative="1" as="geometry" />
        </mxCell>
        <mxCell id="FrakZTlxjL5uv5MNa6Mh-15" value="" style="rhombus;whiteSpace=wrap;html=1;fontColor=#000000;fillColor=#ffffc0;strokeColor=#ff0000;" vertex="1" parent="1">
          <mxGeometry x="580" y="370" width="80" height="40" as="geometry" />
        </mxCell>
        <mxCell id="FrakZTlxjL5uv5MNa6Mh-23" value="" style="edgeStyle=orthogonalEdgeStyle;rounded=0;orthogonalLoop=1;jettySize=auto;html=1;" edge="1" parent="1" source="FrakZTlxjL5uv5MNa6Mh-18" target="FrakZTlxjL5uv5MNa6Mh-20">
          <mxGeometry relative="1" as="geometry" />
        </mxCell>
        <mxCell id="FrakZTlxjL5uv5MNa6Mh-18" value="Xác thực thông tin sản phẩm" style="whiteSpace=wrap;html=1;fillColor=#ffffc0;strokeColor=#ff0000;fontColor=#000000;rounded=1;arcSize=40;" vertex="1" parent="1">
          <mxGeometry x="365" y="670" width="120" height="60" as="geometry" />
        </mxCell>
        <mxCell id="FrakZTlxjL5uv5MNa6Mh-20" value="" style="rhombus;whiteSpace=wrap;html=1;fontColor=#000000;fillColor=#ffffc0;strokeColor=#ff0000;" vertex="1" parent="1">
          <mxGeometry x="550" y="680" width="80" height="40" as="geometry" />
        </mxCell>
        <mxCell id="FrakZTlxjL5uv5MNa6Mh-21" value="[Có lỗi]" style="edgeStyle=orthogonalEdgeStyle;html=1;align=left;verticalAlign=bottom;endArrow=open;endSize=8;strokeColor=#ff0000;rounded=0;" edge="1" source="FrakZTlxjL5uv5MNa6Mh-20" parent="1" target="FrakZTlxjL5uv5MNa6Mh-28">
          <mxGeometry x="-1" relative="1" as="geometry">
            <mxPoint x="700" y="700" as="targetPoint" />
          </mxGeometry>
        </mxCell>
        <mxCell id="FrakZTlxjL5uv5MNa6Mh-22" value="[Không có lỗi]" style="edgeStyle=orthogonalEdgeStyle;html=1;align=left;verticalAlign=top;endArrow=open;endSize=8;strokeColor=#ff0000;rounded=0;entryX=1;entryY=0.5;entryDx=0;entryDy=0;exitX=0.5;exitY=1;exitDx=0;exitDy=0;" edge="1" source="FrakZTlxjL5uv5MNa6Mh-20" parent="1" target="FrakZTlxjL5uv5MNa6Mh-26">
          <mxGeometry x="-1" relative="1" as="geometry">
            <mxPoint x="560" y="780" as="targetPoint" />
          </mxGeometry>
        </mxCell>
        <mxCell id="FrakZTlxjL5uv5MNa6Mh-30" value="" style="edgeStyle=orthogonalEdgeStyle;rounded=0;orthogonalLoop=1;jettySize=auto;html=1;" edge="1" parent="1" source="FrakZTlxjL5uv5MNa6Mh-26" target="FrakZTlxjL5uv5MNa6Mh-29">
          <mxGeometry relative="1" as="geometry" />
        </mxCell>
        <mxCell id="FrakZTlxjL5uv5MNa6Mh-26" value="Xử lý thanh toán" style="whiteSpace=wrap;html=1;fillColor=#ffffc0;strokeColor=#ff0000;fontColor=#000000;rounded=1;arcSize=40;" vertex="1" parent="1">
          <mxGeometry x="365" y="770" width="120" height="60" as="geometry" />
        </mxCell>
        <mxCell id="FrakZTlxjL5uv5MNa6Mh-32" value="" style="edgeStyle=orthogonalEdgeStyle;rounded=0;orthogonalLoop=1;jettySize=auto;html=1;" edge="1" parent="1" source="FrakZTlxjL5uv5MNa6Mh-28" target="FrakZTlxjL5uv5MNa6Mh-31">
          <mxGeometry relative="1" as="geometry" />
        </mxCell>
        <mxCell id="FrakZTlxjL5uv5MNa6Mh-28" value="Hiển thị lỗi tương ứng" style="rounded=1;whiteSpace=wrap;html=1;arcSize=40;fontColor=#000000;fillColor=#ffffc0;strokeColor=#ff0000;" vertex="1" parent="1">
          <mxGeometry x="710" y="680" width="120" height="40" as="geometry" />
        </mxCell>
        <mxCell id="FrakZTlxjL5uv5MNa6Mh-37" value="" style="edgeStyle=orthogonalEdgeStyle;rounded=0;orthogonalLoop=1;jettySize=auto;html=1;" edge="1" parent="1" source="FrakZTlxjL5uv5MNa6Mh-29" target="FrakZTlxjL5uv5MNa6Mh-36">
          <mxGeometry relative="1" as="geometry" />
        </mxCell>
        <mxCell id="FrakZTlxjL5uv5MNa6Mh-29" value="Gửi email cho người mua" style="whiteSpace=wrap;html=1;fillColor=#ffffc0;strokeColor=#ff0000;fontColor=#000000;rounded=1;arcSize=40;" vertex="1" parent="1">
          <mxGeometry x="365" y="880" width="120" height="60" as="geometry" />
        </mxCell>
        <mxCell id="FrakZTlxjL5uv5MNa6Mh-34" style="edgeStyle=orthogonalEdgeStyle;rounded=0;orthogonalLoop=1;jettySize=auto;html=1;exitX=1;exitY=0.5;exitDx=0;exitDy=0;entryX=1;entryY=0.5;entryDx=0;entryDy=0;" edge="1" parent="1" source="FrakZTlxjL5uv5MNa6Mh-31" target="FrakZTlxjL5uv5MNa6Mh-33">
          <mxGeometry relative="1" as="geometry" />
        </mxCell>
        <mxCell id="FrakZTlxjL5uv5MNa6Mh-31" value="Xóa các sản phẩm gây ra lỗi" style="whiteSpace=wrap;html=1;fillColor=#ffffc0;strokeColor=#ff0000;fontColor=#000000;rounded=1;arcSize=40;" vertex="1" parent="1">
          <mxGeometry x="710" y="770" width="120" height="60" as="geometry" />
        </mxCell>
        <mxCell id="FrakZTlxjL5uv5MNa6Mh-35" style="edgeStyle=orthogonalEdgeStyle;rounded=0;orthogonalLoop=1;jettySize=auto;html=1;exitX=0.5;exitY=1;exitDx=0;exitDy=0;entryX=1;entryY=0.5;entryDx=0;entryDy=0;" edge="1" parent="1" source="FrakZTlxjL5uv5MNa6Mh-33" target="FrakZTlxjL5uv5MNa6Mh-8">
          <mxGeometry relative="1" as="geometry" />
        </mxCell>
        <mxCell id="FrakZTlxjL5uv5MNa6Mh-33" value="" style="rhombus;whiteSpace=wrap;html=1;fontColor=#000000;fillColor=#ffffc0;strokeColor=#ff0000;" vertex="1" parent="1">
          <mxGeometry x="500" y="530" width="80" height="40" as="geometry" />
        </mxCell>
        <mxCell id="FrakZTlxjL5uv5MNa6Mh-36" value="" style="ellipse;html=1;shape=endState;fillColor=#000000;strokeColor=#ff0000;" vertex="1" parent="1">
          <mxGeometry x="410" y="970" width="30" height="30" as="geometry" />
        </mxCell>
      </root>
    </mxGraphModel>
  </diagram>
</mxfile>
